<svg xmlns="http://www.w3.org/2000/svg" viewBox="0 0 130.51 156.09"><defs><style>.cls-1{fill:#2547fe;}</style></defs><g id="Layer_2" data-name="Layer 2"><g id="Layer_1-2" data-name="Layer 1"><g id="_.exe" data-name=".exe"><path class="cls-1" d="M0,0V156.09H91.39L130.51,117V0ZM117,117.72,92.14,142.6V117.72Zm-33.88-9V147.1H9V9H121.51v99.72Z"/><polygon class="cls-1" points="28.7 55.68 44.41 55.68 44.41 48.42 28.7 48.42 28.7 37.05 45.36 37.05 45.36 29.78 19.73 29.78 19.73 75.95 46.04 75.95 46.04 68.69 28.7 68.69 28.7 55.68"/><polygon class="cls-1" points="80.89 29.78 71.09 29.78 65 45.23 58.84 29.78 48.92 29.78 59.51 52.62 48.06 75.95 57.88 75.95 64.67 59.8 71.52 75.95 81.61 75.95 70.16 52.62 80.89 29.78"/><polygon class="cls-1" points="94.49 55.68 110.14 55.68 110.14 48.42 94.49 48.42 94.49 37.05 111.09 37.05 111.09 29.78 85.46 29.78 85.46 75.95 111.77 75.95 111.77 68.69 94.49 68.69 94.49 55.68"/></g></g></g></svg>