<svg xmlns="http://www.w3.org/2000/svg" viewBox="0 0 139.6 169.1"><defs><style>.cls-1{fill:#deff5b;}</style></defs><g id="Layer_2" data-name="Layer 2"><g id="Layer_1-2" data-name="Layer 1"><g id="Hero_Shield" data-name="Hero Shield"><path class="cls-1" d="M113.26,11.16a38.86,38.86,0,0,1-7-11.16H33.36a38.86,38.86,0,0,1-7,11.16A39.24,39.24,0,0,1,0,24.11v9.37a166.14,166.14,0,0,0,61.39,129.2c2.71,2.21,5.53,4.36,8.41,6.42,2.88-2.06,5.7-4.21,8.41-6.42A166.14,166.14,0,0,0,139.6,33.48V24.11A39.22,39.22,0,0,1,113.26,11.16ZM102.36,128l-5.14,7V75.33H90.8V142l-.76.81A160.35,160.35,0,0,1,77.71,154.7L73,158.77V72.47l-.11-.07a18.38,18.38,0,0,1-1.5-1.13.69.69,0,0,1-.13-.11l-.06,0-.51-.46a1.83,1.83,0,0,1-.21-.2L70,70l-.19-.21,0,0,0,0-.2.21c-.15.16-.3.31-.48.48l-.19.18-.51.46-.06,0-.13.11a18.38,18.38,0,0,1-1.5,1.13l-.11.07v86.3l-4.71-4.07a162.07,162.07,0,0,1-12.32-11.87l-.77-.82V75.33H42.37V135l-5.14-7c-.63-.86-1.25-1.72-1.86-2.59A159,159,0,0,1,6.42,33.48c0-.31,0-.62,0-.93s0-.42,0-.63l0-2.19,2.11-.54a45.62,45.62,0,0,0,18.71-10,45.75,45.75,0,0,0,9.34-11.4l.82-1.42h4.92V40.49h6.42V6.42h17.8V43.35l.11.07a16.24,16.24,0,0,1,1.5,1.12l.13.11,0,.05.52.46.21.2.47.47.19.2,0,0,0,0,.2-.21c.15-.15.3-.31.48-.48l.19-.18.51-.46.06-.05.13-.11a16.24,16.24,0,0,1,1.5-1.12.41.41,0,0,1,.11-.07V6.42H90.8V40.49h6.42V6.42h4.93L103,7.84a45.75,45.75,0,0,0,9.34,11.4,45.62,45.62,0,0,0,18.71,10l2.11.54,0,2.19c0,.21,0,.42,0,.63s0,.62,0,.93A159,159,0,0,1,102.36,128Z"/><path class="cls-1" d="M68.65,68.38l0,0c-.18-.24-.36-.5-.54-.76L68,67.5c-.14-.22-.28-.44-.41-.66l0,0-.06-.11,0-.07L67.16,66c0-.07-.07-.15-.11-.22l0,0a5.6,5.6,0,0,1-.27-.55s-.05-.09-.07-.14l-.06-.15a.36.36,0,0,1,0-.09c-.07-.15-.14-.31-.2-.47v0a2.6,2.6,0,0,1-.1-.25c-.08-.2-.15-.4-.22-.6l0-.08a1.46,1.46,0,0,1-.07-.19c0-.05,0-.09,0-.13v0l-.12-.41,0-.11h0v0a.24.24,0,0,1,0-.08l0,0,0-.12a1.74,1.74,0,0,0-.05-.22c-.1.22-.21.43-.33.64h0a9.3,9.3,0,0,1-.64,1l0,.07c-.14.18-.27.34-.42.51l-.07.08a9.66,9.66,0,0,1-1.37,1.26l-.23.17-.39.26-.33.2c-.12.07-.24.14-.37.2a4.71,4.71,0,0,1-.45.22l-.29.13c-.24.1-.5.2-.75.28l-.28.08-.57.14-.3.06q-.3.06-.6.09l-.27,0c-.3,0-.59,0-.89,0l-8.24,0-6.42,0v6.42H57l.91,0,.29,0,.6-.06.33,0,.57-.09.32,0,.57-.12.29-.07.68-.19.16,0,.83-.28.18-.08.62-.25.26-.12.53-.24.27-.14.5-.28.25-.14.55-.35.17-.11c.24-.15.45-.33.68-.5s.47-.34.7-.53l.17-.15c.16-.13.31-.27.47-.42l.19-.18c.15-.14.29-.28.43-.43l.18-.19.14-.15-.19-.24Z"/><path class="cls-1" d="M67.58,66.79l-.06-.11,0-.07,0,.07Z"/><path class="cls-1" d="M67,65.77a5.6,5.6,0,0,1-.27-.55s-.05-.09-.07-.14,0,.09.07.14A5.6,5.6,0,0,0,67,65.77Z"/><path class="cls-1" d="M67.16,66l.32.57L67.16,66c0-.07-.07-.15-.11-.22l0,0,0,0C67.09,65.89,67.12,66,67.16,66Z"/><path class="cls-1" d="M82.57,41.91c-.31,0-.61,0-.91,0l-.29,0-.61,0-.33,0-.56.09-.32.06c-.2,0-.39.08-.57.12l-.3.07-.67.18-.17,0c-.27.08-.55.18-.82.28l-.19.07-.61.25-.27.12-.52.25-.27.14-.51.27-.24.15-.55.34-.17.11c-.24.16-.46.34-.68.51s-.48.34-.7.52l-.17.15-.47.42-.2.19-.42.42-.18.19-.14.16.19.24,0,0,0,0,.54.76.06.11q.23.33.42.66l.09.16h0l0,.06c.11.19.21.38.31.57l.12.23,0,0,.27.55a1,1,0,0,0,.07.15l.06.14A.36.36,0,0,0,73,51l.2.47v0c0,.09.07.17.1.25s.1.29.15.43l.07.18v0l0,0c0,.05,0,.09,0,.13a.14.14,0,0,0,0,.07,1.33,1.33,0,0,1,.05.19l0,.08,0,.09c0,.11.07.21.1.31v0h0v0a.74.74,0,0,0,0,.14c0,.1,0,.22.07.33.09-.18.18-.37.28-.55a9.49,9.49,0,0,1,.7-1.08l0-.07c.13-.17.27-.34.41-.5l.08-.08a8.61,8.61,0,0,1,1.37-1.26l.23-.18.39-.25.33-.2.36-.21.45-.21.29-.14c.25-.1.5-.19.76-.27l.28-.08a5.12,5.12,0,0,1,.56-.15l.31-.06a5.58,5.58,0,0,1,.59-.09l.28,0a8.69,8.69,0,0,1,.89-.05l8.23,0,6.42,0V41.91H82.57Z"/><path class="cls-1" d="M73.22,51.48v0L73,51a.36.36,0,0,1,0-.09l-.06-.14.06.14A.36.36,0,0,0,73,51l.2.47v0c0,.09.07.17.1.25s.1.29.15.43c0-.14-.09-.28-.15-.43S73.26,51.57,73.22,51.48Z"/><path class="cls-1" d="M73.54,52.36l0,0c0,.05,0,.09,0,.13s0-.08,0-.13Z"/><path class="cls-1" d="M71,47.45c.18.25.36.5.54.77l.06.1-.06-.11Z"/><line class="cls-1" x1="72.08" y1="49.14" x2="72.08" y2="49.14"/><path class="cls-1" d="M90.8,67.47l-8.23,0c-.3,0-.6,0-.89,0l-.28,0a5.58,5.58,0,0,1-.59-.09l-.31-.06-.56-.14L79.66,67c-.26-.08-.51-.18-.76-.28l-.29-.13-.45-.22-.36-.2-.33-.2-.39-.26-.23-.17a9.66,9.66,0,0,1-1.37-1.26.6.6,0,0,0-.08-.08L75,63.68l0-.06a10.57,10.57,0,0,1-.64-1h0L74,62q-.18-.37-.33-.78h0l0-.09h0c-.09-.27-.17-.54-.24-.82a2.68,2.68,0,0,1-.07-.27c0-.18-.08-.37-.11-.55A10.87,10.87,0,0,1,73,58h0v0c0-.28,0-.55,0-.82s0-.47-.05-.7h0v-.11c0-.26-.06-.52-.1-.79h0L72.76,55v0l-.06-.32c0-.15-.07-.3-.1-.45l0-.11c0-.08,0-.16,0-.24s0-.09,0-.14v-.05c0-.12-.07-.25-.11-.38a2.17,2.17,0,0,0-.07-.24c0-.08,0-.16-.08-.25h0l-.06-.17L72,52.24l-.1-.27c-.07-.17-.15-.34-.22-.52l-.12-.26s0-.09-.07-.14l-.18-.37h0l-.12-.24-.06-.1-.23-.43h0a1.28,1.28,0,0,0-.11-.2l0,0c-.11-.2-.24-.4-.36-.59L70.33,49h0c-.16-.24-.33-.47-.5-.7l0,0-.12-.15L69.56,48l-.26-.33-.14-.16c-.1-.11-.19-.22-.29-.32L68.73,47l-.18-.19-.43-.43-.19-.18-.47-.42-.17-.15c-.22-.18-.47-.35-.7-.52s-.44-.35-.68-.51l-.17-.11-.55-.34a2,2,0,0,0-.25-.14c-.16-.1-.33-.19-.51-.28l-.26-.14-.53-.25-.26-.12L62.76,43l-.18-.07c-.27-.1-.55-.2-.83-.28l-.16,0c-.22-.06-.45-.13-.68-.18l-.29-.07c-.19,0-.38-.09-.57-.12l-.32-.06-.57-.09-.33,0-.6,0-.29,0c-.3,0-.61,0-.91,0H42.37v6.41l6.42,0,8.24,0a8.85,8.85,0,0,1,.89.05l.27,0q.3,0,.6.09l.3.06a5.29,5.29,0,0,1,.57.15l.28.08c.25.08.51.17.75.27l.29.14.45.21.37.21.33.2.39.26.23.17a9.06,9.06,0,0,1,1.37,1.26.27.27,0,0,1,.07.08c.15.16.28.33.42.5l0,.07c.25.34.48.71.7,1.08.09.18.19.37.27.55a7.46,7.46,0,0,1,.37.88h0a7.46,7.46,0,0,1,.26.84l.06.28c.05.19.09.39.12.58a9.29,9.29,0,0,1,.13,1.5s0,0,0,0h0c0,.25,0,.5,0,.75h0v0c0,.23,0,.46,0,.69v.11h0c0,.26.06.52.1.79s.07.41.11.61l0,.24v0h0c0,.14.07.28.1.41l0,.13a1.16,1.16,0,0,0,0,.18V62a.29.29,0,0,0,0,.09v0l.15.5c0,.05,0,.1,0,.16v0c0,.07,0,.14.08.22h0c.06.19.13.37.2.55h0a2.77,2.77,0,0,0,.1.26h0c.07.18.14.35.22.52l.12.26c.08.18.16.34.24.51h0l.12.24h0l.29.52h0l.11.19h0c.12.2.25.4.38.6l.06.1.5.7v0h0a1.34,1.34,0,0,0,.11.14l.14.18c.09.11.16.21.25.31l.14.17.29.32.14.15.18.19.42.43.2.18c.15.15.31.29.47.43l.17.14c.22.19.46.35.7.53s.44.35.68.5l.17.11c.18.12.36.24.55.35l.24.14.51.28.27.13.53.25.26.12.61.25.19.08.83.28.16,0,.67.19.29.07.58.12.32,0,.56.09.33,0,.61.06.29,0c.3,0,.6,0,.91,0H97.22V67.49Z"/><path class="cls-1" d="M67.61,63.58h0"/><path class="cls-1" d="M73.59,61.11l0,.09h0l0-.09c-.09-.27-.17-.54-.25-.82.08.28.16.55.25.82Z"/><path class="cls-1" d="M66,54.71c.1.28.19.56.26.84a7.46,7.46,0,0,0-.26-.84Z"/><path class="cls-1" d="M73.17,59.47c0,.18.07.37.11.55"/><path class="cls-1" d="M66.32,55.83c.05.19.09.39.12.58"/><path class="cls-1" d="M67.05,61.81l0,.11a1.16,1.16,0,0,1,0-.18Z"/><path class="cls-1" d="M68.75,66l.08.12-.11-.19Z"/><path class="cls-1" d="M72.34,53.28c0,.13.08.26.11.38h0a6.32,6.32,0,0,0-.18-.62c0-.06,0-.11,0-.16l0-.09c0,.09.06.17.08.25A2.17,2.17,0,0,1,72.34,53.28Z"/><path class="cls-1" d="M67.38,62.94l0,.08c0-.08,0-.15-.08-.22S67.36,62.89,67.38,62.94Z"/><path class="cls-1" d="M68.32,65.18a1.74,1.74,0,0,0,.1.19l-.12-.24Z"/><path class="cls-1" d="M70.88,49.91h0l0-.07-.07-.13,0,0,0,0A1.28,1.28,0,0,1,70.88,49.91Z"/><path class="cls-1" d="M71.3,50.68h0l0,0-.1-.2-.06-.1.06.1Z"/><path class="cls-1" d="M72.56,54.09V54a.94.94,0,0,1,0-.16l0-.09v0h0s0,.1,0,.14S72.54,54,72.56,54.09Z"/><path class="cls-1" d="M69.83,48.31c.17.23.34.46.5.7h0c-.17-.24-.33-.48-.5-.7a1.71,1.71,0,0,0-.11-.14l0-.05.12.15Z"/><path class="cls-1" d="M71.67,51.45c.07.18.15.35.22.52l.1.27.14.38L72,52.24,71.9,52v0l-.22-.52-.12-.26s0-.09-.07-.14,0,.09.07.14Z"/><path class="cls-1" d="M67.7,63.8v0a2.77,2.77,0,0,1-.1-.26Z"/><path class="cls-1" d="M67.12,62.06v0a.29.29,0,0,1,0-.09Z"/><path class="cls-1" d="M69.79,67.53l.09.12,0,0-.1-.14Z"/><path class="cls-1" d="M65.92,63v0s0,.08,0,.13a1.46,1.46,0,0,0,.07.19l0,.08c.07.2.14.4.22.6a2.6,2.6,0,0,0,.1.25v0a2.6,2.6,0,0,1-.1-.25c-.08-.2-.15-.4-.22-.6l0-.08a1.46,1.46,0,0,1-.07-.19c-.06-.2-.12-.39-.17-.59h0l0-.11,0,.11Z"/><path class="cls-1" d="M66.63,64.93l.06.15-.06-.15a.36.36,0,0,1,0-.09c-.07-.15-.14-.31-.2-.47.06.16.13.32.2.47A.36.36,0,0,0,66.63,64.93Z"/><path class="cls-1" d="M68.09,67.6,68,67.5c-.14-.22-.28-.44-.41-.66l0,0,0,0c.13.22.27.44.41.66l.07.1c.18.26.36.52.54.76l0,0,0,0,.19.24h0c-.08-.1-.17-.2-.24-.3S68.27,67.86,68.09,67.6Z"/><path class="cls-1" d="M73.73,53l0-.09,0-.08a1.33,1.33,0,0,0-.05-.19.14.14,0,0,1,0-.07.14.14,0,0,0,0,.07c.07.22.13.45.2.67v0C73.8,53.18,73.77,53.08,73.73,53Z"/><path class="cls-1" d="M73.47,52.16l.07.18v0Z"/><path class="cls-1" d="M72.57,50l.27.55a1,1,0,0,0,.07.15,1,1,0,0,1-.07-.15Z"/><path class="cls-1" d="M72.08,49.14l0,.06c.11.19.21.38.31.57-.1-.19-.2-.38-.31-.57Z"/><path class="cls-1" d="M72.43,49.77l.12.23,0,0,0,0Z"/><path class="cls-1" d="M72,49q-.19-.33-.42-.66.23.33.42.66l.09.16h0Z"/><path class="cls-1" d="M70.92,47.4l-.19-.24h0l.24.29,0,0Z"/><path class="cls-1" d="M75.12,54.71h-1c0,.19.07.37.1.57v0h0l.06.5c0,.12,0,.23,0,.34a.45.45,0,0,1,0,.12h0v0c0,.25,0,.49.06.74s0,.59,0,.89v0h0c0,.14,0,.28,0,.42a2.26,2.26,0,0,0,0,.26.13.13,0,0,0,0,.06,7.69,7.69,0,0,0,.43,1.93h0c.07.19.15.38.23.57H97.22V54.71H75.12Z"/><path class="cls-1" d="M74.5,58.69a.13.13,0,0,1,0-.06"/><path class="cls-1" d="M74.92,60.6v0a7.69,7.69,0,0,1-.43-1.93A7.76,7.76,0,0,0,74.92,60.6Z"/><path class="cls-1" d="M74.48,58.37a2.26,2.26,0,0,0,0,.26"/><path class="cls-1" d="M74.36,56.14c0-.11,0-.22,0-.34,0,.12,0,.23,0,.34a.45.45,0,0,1,0,.12h0A.45.45,0,0,0,74.36,56.14Z"/><path class="cls-1" d="M73.84,53.32h0v0a.74.74,0,0,0,0,.14.74.74,0,0,1,0-.14Z"/><path class="cls-1" d="M73.28,60l.06.27"/><path class="cls-1" d="M63.58,61.2h1.88c0-.22-.08-.44-.11-.66h0v0h0l-.09-.7c0-.05,0-.09,0-.14a.41.41,0,0,1,0-.12h0v0c0-.24,0-.49,0-.73s0-.56,0-.85h0v-.08c0-.12,0-.25,0-.37s0-.2,0-.29,0-.28,0-.41a2.51,2.51,0,0,0,0-.27c0-.15-.06-.31-.1-.46s0-.14,0-.22-.13-.44-.21-.67-.1-.26-.16-.4l0-.07H42.37V61.2H63.58Z"/><path class="cls-1" d="M65,56.53a2.51,2.51,0,0,1,0,.27"/><path class="cls-1" d="M64.87,55.85c0,.08,0,.15,0,.22"/><path class="cls-1" d="M65.13,57.5c0-.1,0-.2,0-.29"/><path class="cls-1" d="M64.92,56.07c0,.15.07.31.1.46"/><path class="cls-1" d="M65.06,56.8c0,.13,0,.27,0,.41"/><path class="cls-1" d="M65.76,62.5h0v0a.24.24,0,0,1,0-.08.24.24,0,0,0,0,.08Z"/><path class="cls-1" d="M65.23,59.55h0"/><polygon class="cls-1" points="66 54.71 66 54.71 66 54.71 66 54.71"/><path class="cls-1" d="M66.26,55.55l.06.28"/><path class="cls-1" d="M65.73,62.37l0,0,0-.12,0,.12Z"/></g></g></g></svg>